<mxfile host="app.diagrams.net" agent="Mozilla/5.0 (Macintosh; Intel Mac OS X 10_15_7) AppleWebKit/537.36 (KHTML, like Gecko) Chrome/138.0.0.0 Safari/537.36" version="28.0.3">
  <diagram name="ページ1" id="c8ebaje_NtsFyl2GPo1Y">
    <mxGraphModel dx="1783" dy="1501" grid="1" gridSize="10" guides="1" tooltips="1" connect="1" arrows="1" fold="1" page="1" pageScale="1" pageWidth="827" pageHeight="1169" math="0" shadow="0">
      <root>
        <mxCell id="0" />
        <mxCell id="1" parent="0" />
        <mxCell id="O2gnGtnlvFRp986lp4Vl-47" value="" style="edgeStyle=elbowEdgeStyle;elbow=vertical;html=1;rounded=1;curved=0;sourcePerimeterSpacing=0;targetPerimeterSpacing=0;startSize=6;endSize=6;entryX=0.5;entryY=0;entryDx=0;entryDy=0;endArrow=none;endFill=0;startArrow=classic;startFill=1;exitX=1;exitY=0.5;exitDx=0;exitDy=0;strokeColor=#00FF00;strokeWidth=2;" edge="1" parent="1" target="O2gnGtnlvFRp986lp4Vl-44">
          <mxGeometry relative="1" as="geometry">
            <mxPoint x="384" y="90" as="sourcePoint" />
            <mxPoint x="705" y="170" as="targetPoint" />
            <Array as="points">
              <mxPoint x="550" y="90" />
            </Array>
          </mxGeometry>
        </mxCell>
        <mxCell id="O2gnGtnlvFRp986lp4Vl-48" value="&lt;span style=&quot;text-align: center;&quot;&gt;&lt;font style=&quot;font-size: 14px;&quot;&gt;&amp;nbsp;LINE Developers - Notification POST&lt;/font&gt;&lt;/span&gt;" style="label;whiteSpace=wrap;html=1;image=img/clipart/Gear_128x128.png;arcSize=10;fillColor=#3399FF;" vertex="1" parent="1">
          <mxGeometry x="126" y="100" width="366" height="60" as="geometry" />
        </mxCell>
        <mxCell id="O2gnGtnlvFRp986lp4Vl-49" value="&lt;span style=&quot;font-size: 14px; text-align: center; background-color: transparent; color: light-dark(rgb(0, 0, 0), rgb(255, 255, 255));&quot;&gt;&amp;nbsp;リマインドシート - microSDカード回収 20XX&lt;/span&gt;" style="label;whiteSpace=wrap;html=1;image=img/clipart/Gear_128x128.png;arcSize=10;fillColor=#3399FF;" vertex="1" parent="1">
          <mxGeometry x="126" y="220" width="366" height="60" as="geometry" />
        </mxCell>
        <mxCell id="O2gnGtnlvFRp986lp4Vl-51" value="&lt;span style=&quot;font-size: 14px; text-align: center; background-color: transparent; color: light-dark(rgb(0, 0, 0), rgb(255, 255, 255));&quot;&gt;&amp;nbsp;&lt;/span&gt;&lt;span style=&quot;text-align: center;&quot;&gt;&lt;font style=&quot;font-size: 14px;&quot;&gt;LINE Custom Notification&lt;/font&gt;&lt;/span&gt;" style="label;whiteSpace=wrap;html=1;image=img/clipart/Gear_128x128.png;arcSize=10;fillColor=#3399FF;" vertex="1" parent="1">
          <mxGeometry x="126" y="420" width="366" height="60" as="geometry" />
        </mxCell>
        <mxCell id="O2gnGtnlvFRp986lp4Vl-53" value="&lt;span style=&quot;color: rgba(0, 0, 0, 0.87); font-family: Roboto, Meiryo, -apple-system, system-ui, &amp;quot;system-ui&amp;quot;, &amp;quot;Segoe UI&amp;quot;, &amp;quot;Helvetica Neue&amp;quot;, &amp;quot;Segoe UI Emoji&amp;quot;, &amp;quot;Segoe UI Symbol&amp;quot;, &amp;quot;Apple Color Emoji&amp;quot;, &amp;quot;Noto Color Emoji&amp;quot;, &amp;quot;Noto Emoji&amp;quot;, sans-serif, Arial; font-size: 13.8667px;&quot;&gt;Messaging API&lt;/span&gt;" style="label;whiteSpace=wrap;html=1;align=center;verticalAlign=bottom;spacingLeft=0;spacingBottom=4;imageAlign=center;imageVerticalAlign=top;image=img/clipart/Gear_128x128.png;fillColor=#00FF00;" vertex="1" parent="1">
          <mxGeometry x="827" y="210" width="150" height="80" as="geometry" />
        </mxCell>
        <mxCell id="O2gnGtnlvFRp986lp4Vl-58" value="" style="elbow=vertical;html=1;rounded=1;sourcePerimeterSpacing=0;targetPerimeterSpacing=0;startSize=6;endSize=6;endArrow=none;endFill=0;startArrow=none;startFill=0;entryX=1;entryY=0.5;entryDx=0;entryDy=0;exitX=0;exitY=0.5;exitDx=0;exitDy=0;strokeWidth=2;strokeColor=#3399FF;" edge="1" parent="1" source="O2gnGtnlvFRp986lp4Vl-88" target="O2gnGtnlvFRp986lp4Vl-51">
          <mxGeometry relative="1" as="geometry">
            <mxPoint x="816" y="160" as="sourcePoint" />
            <mxPoint x="495" y="335" as="targetPoint" />
          </mxGeometry>
        </mxCell>
        <mxCell id="O2gnGtnlvFRp986lp4Vl-59" value="" style="elbow=vertical;html=1;rounded=1;sourcePerimeterSpacing=0;targetPerimeterSpacing=0;startSize=6;endSize=6;endArrow=none;endFill=0;startArrow=none;startFill=0;entryX=1;entryY=0.5;entryDx=0;entryDy=0;exitX=0;exitY=0.5;exitDx=0;exitDy=0;strokeWidth=2;strokeColor=#3399FF;" edge="1" parent="1" source="O2gnGtnlvFRp986lp4Vl-90" target="O2gnGtnlvFRp986lp4Vl-52">
          <mxGeometry relative="1" as="geometry">
            <mxPoint x="948" y="320" as="sourcePoint" />
            <mxPoint x="666" y="360" as="targetPoint" />
          </mxGeometry>
        </mxCell>
        <mxCell id="O2gnGtnlvFRp986lp4Vl-60" value="" style="elbow=vertical;html=1;rounded=1;sourcePerimeterSpacing=0;targetPerimeterSpacing=0;startSize=6;endSize=6;endArrow=none;endFill=0;startArrow=none;startFill=0;entryX=1;entryY=0.5;entryDx=0;entryDy=0;strokeWidth=2;strokeColor=#3399FF;" edge="1" parent="1" source="O2gnGtnlvFRp986lp4Vl-86" target="O2gnGtnlvFRp986lp4Vl-50">
          <mxGeometry relative="1" as="geometry">
            <mxPoint x="736" y="250" as="sourcePoint" />
            <mxPoint x="696" y="360" as="targetPoint" />
          </mxGeometry>
        </mxCell>
        <mxCell id="O2gnGtnlvFRp986lp4Vl-61" value="" style="elbow=vertical;html=1;rounded=1;sourcePerimeterSpacing=0;targetPerimeterSpacing=0;startSize=6;endSize=6;endArrow=none;endFill=0;startArrow=none;startFill=0;exitX=0;exitY=0.5;exitDx=0;exitDy=0;strokeWidth=2;strokeColor=#3399FF;" edge="1" parent="1" source="O2gnGtnlvFRp986lp4Vl-84">
          <mxGeometry relative="1" as="geometry">
            <mxPoint x="1007" y="160" as="sourcePoint" />
            <mxPoint x="492" y="250" as="targetPoint" />
          </mxGeometry>
        </mxCell>
        <mxCell id="O2gnGtnlvFRp986lp4Vl-62" value="" style="edgeStyle=elbowEdgeStyle;elbow=vertical;html=1;rounded=1;curved=0;sourcePerimeterSpacing=0;targetPerimeterSpacing=0;startSize=6;endSize=6;entryX=0.5;entryY=0;entryDx=0;entryDy=0;endArrow=none;endFill=0;startArrow=none;startFill=0;exitX=1;exitY=0.5;exitDx=0;exitDy=0;strokeColor=#00FF00;strokeWidth=2;" edge="1" parent="1" source="O2gnGtnlvFRp986lp4Vl-95" target="O2gnGtnlvFRp986lp4Vl-53">
          <mxGeometry relative="1" as="geometry">
            <mxPoint x="492" y="90" as="sourcePoint" />
            <mxPoint x="813" y="145" as="targetPoint" />
            <Array as="points">
              <mxPoint x="686" y="130" />
              <mxPoint x="646" y="130" />
            </Array>
          </mxGeometry>
        </mxCell>
        <mxCell id="O2gnGtnlvFRp986lp4Vl-63" value="&lt;b&gt;&lt;font style=&quot;font-size: 15px;&quot;&gt;「Message」&lt;/font&gt;&lt;/b&gt;" style="endArrow=classic;html=1;endSize=6;startArrow=diamondThin;startSize=14;startFill=1;edgeStyle=orthogonalEdgeStyle;align=left;verticalAlign=bottom;rounded=1;exitX=1;exitY=0.5;exitDx=0;exitDy=0;curved=0;endFill=1;strokeColor=#00FF00;strokeWidth=2;entryX=0.1;entryY=0.65;entryDx=0;entryDy=0;entryPerimeter=0;" edge="1" parent="1" source="O2gnGtnlvFRp986lp4Vl-53" target="O2gnGtnlvFRp986lp4Vl-79">
          <mxGeometry x="-0.9403" y="5" relative="1" as="geometry">
            <mxPoint x="917" y="250" as="sourcePoint" />
            <mxPoint x="1191" y="330" as="targetPoint" />
            <Array as="points">
              <mxPoint x="1161" y="250" />
              <mxPoint x="1161" y="284" />
            </Array>
            <mxPoint as="offset" />
          </mxGeometry>
        </mxCell>
        <mxCell id="O2gnGtnlvFRp986lp4Vl-64" value="&lt;font style=&quot;font-size: 15px;&quot;&gt;Group LINE (血祭りにあげてやるグループLINE)&lt;/font&gt;" style="swimlane;whiteSpace=wrap;html=1;container=0;startSize=30;fillColor=#00FF00;" vertex="1" parent="1">
          <mxGeometry x="1091" y="75" width="380" height="500" as="geometry" />
        </mxCell>
        <mxCell id="O2gnGtnlvFRp986lp4Vl-65" value="" style="group" vertex="1" connectable="0" parent="O2gnGtnlvFRp986lp4Vl-64">
          <mxGeometry x="40" y="370" width="90" height="85" as="geometry" />
        </mxCell>
        <mxCell id="O2gnGtnlvFRp986lp4Vl-66" value="&lt;font style=&quot;font-size: 15px;&quot;&gt;User A&lt;/font&gt;" style="text;html=1;align=center;verticalAlign=middle;whiteSpace=wrap;rounded=0;fontStyle=1;fillColor=none;container=0;" vertex="1" parent="O2gnGtnlvFRp986lp4Vl-65">
          <mxGeometry y="60" width="90" height="30" as="geometry" />
        </mxCell>
        <mxCell id="O2gnGtnlvFRp986lp4Vl-67" value="" style="shape=actor;whiteSpace=wrap;html=1;fillColor=#00FF00;" vertex="1" parent="O2gnGtnlvFRp986lp4Vl-65">
          <mxGeometry x="25" width="40" height="60" as="geometry" />
        </mxCell>
        <mxCell id="O2gnGtnlvFRp986lp4Vl-68" value="" style="group" vertex="1" connectable="0" parent="O2gnGtnlvFRp986lp4Vl-64">
          <mxGeometry x="145" y="370" width="90" height="85" as="geometry" />
        </mxCell>
        <mxCell id="O2gnGtnlvFRp986lp4Vl-69" value="&lt;font style=&quot;font-size: 15px;&quot;&gt;User B&lt;/font&gt;" style="text;html=1;align=center;verticalAlign=middle;whiteSpace=wrap;rounded=0;fontStyle=1;fillColor=none;container=0;" vertex="1" parent="O2gnGtnlvFRp986lp4Vl-68">
          <mxGeometry y="60" width="90" height="30" as="geometry" />
        </mxCell>
        <mxCell id="O2gnGtnlvFRp986lp4Vl-70" value="" style="shape=actor;whiteSpace=wrap;html=1;fillColor=#00FF00;" vertex="1" parent="O2gnGtnlvFRp986lp4Vl-68">
          <mxGeometry x="25" width="40" height="60" as="geometry" />
        </mxCell>
        <mxCell id="O2gnGtnlvFRp986lp4Vl-71" value="" style="group" vertex="1" connectable="0" parent="O2gnGtnlvFRp986lp4Vl-64">
          <mxGeometry x="250" y="370" width="90" height="85" as="geometry" />
        </mxCell>
        <mxCell id="O2gnGtnlvFRp986lp4Vl-72" value="&lt;font style=&quot;font-size: 15px;&quot;&gt;User C&lt;/font&gt;" style="text;html=1;align=center;verticalAlign=middle;whiteSpace=wrap;rounded=0;fontStyle=1;fillColor=none;container=0;" vertex="1" parent="O2gnGtnlvFRp986lp4Vl-71">
          <mxGeometry y="60" width="90" height="30" as="geometry" />
        </mxCell>
        <mxCell id="O2gnGtnlvFRp986lp4Vl-73" value="" style="shape=actor;whiteSpace=wrap;html=1;fillColor=#00FF00;" vertex="1" parent="O2gnGtnlvFRp986lp4Vl-71">
          <mxGeometry x="25" width="40" height="60" as="geometry" />
        </mxCell>
        <mxCell id="O2gnGtnlvFRp986lp4Vl-74" value="&lt;b&gt;&lt;font style=&quot;font-size: 15px;&quot;&gt;「Message」&lt;/font&gt;&lt;/b&gt;" style="shape=callout;html=1;perimeter=calloutPerimeter;position2=0;size=30;position=0.27;fillColor=#00FF00;whiteSpace=wrap;" vertex="1" parent="O2gnGtnlvFRp986lp4Vl-64">
          <mxGeometry x="210" y="110" width="110" height="60" as="geometry" />
        </mxCell>
        <mxCell id="O2gnGtnlvFRp986lp4Vl-75" value="" style="elbow=vertical;html=1;rounded=0;sourcePerimeterSpacing=0;targetPerimeterSpacing=0;startSize=6;endSize=6;endArrow=none;endFill=0;startArrow=classic;startFill=1;exitX=0.5;exitY=0;exitDx=0;exitDy=0;strokeWidth=2;strokeColor=#00FF00;entryX=0.5;entryY=1;entryDx=0;entryDy=0;" edge="1" parent="O2gnGtnlvFRp986lp4Vl-64" source="O2gnGtnlvFRp986lp4Vl-67" target="O2gnGtnlvFRp986lp4Vl-79">
          <mxGeometry relative="1" as="geometry">
            <mxPoint x="238" y="250" as="sourcePoint" />
            <mxPoint x="-60" y="440" as="targetPoint" />
          </mxGeometry>
        </mxCell>
        <mxCell id="O2gnGtnlvFRp986lp4Vl-76" value="" style="elbow=vertical;html=1;rounded=0;sourcePerimeterSpacing=0;targetPerimeterSpacing=0;startSize=6;endSize=6;endArrow=none;endFill=0;startArrow=classic;startFill=1;entryX=0.5;entryY=1;entryDx=0;entryDy=0;exitX=0.5;exitY=0;exitDx=0;exitDy=0;strokeWidth=2;strokeColor=#00FF00;curved=0;" edge="1" parent="O2gnGtnlvFRp986lp4Vl-64" source="O2gnGtnlvFRp986lp4Vl-70" target="O2gnGtnlvFRp986lp4Vl-79">
          <mxGeometry relative="1" as="geometry">
            <mxPoint x="150" y="425" as="sourcePoint" />
            <mxPoint x="255" y="310" as="targetPoint" />
          </mxGeometry>
        </mxCell>
        <mxCell id="O2gnGtnlvFRp986lp4Vl-77" value="" style="elbow=vertical;html=1;rounded=1;sourcePerimeterSpacing=0;targetPerimeterSpacing=0;startSize=6;endSize=6;endArrow=none;endFill=0;startArrow=classic;startFill=1;entryX=0.5;entryY=1;entryDx=0;entryDy=0;exitX=0.5;exitY=0;exitDx=0;exitDy=0;strokeWidth=2;strokeColor=#00FF00;" edge="1" parent="O2gnGtnlvFRp986lp4Vl-64" source="O2gnGtnlvFRp986lp4Vl-73" target="O2gnGtnlvFRp986lp4Vl-79">
          <mxGeometry relative="1" as="geometry">
            <mxPoint x="250" y="465" as="sourcePoint" />
            <mxPoint x="355" y="350" as="targetPoint" />
          </mxGeometry>
        </mxCell>
        <mxCell id="O2gnGtnlvFRp986lp4Vl-78" value="" style="group" vertex="1" connectable="0" parent="O2gnGtnlvFRp986lp4Vl-64">
          <mxGeometry x="145" y="170" width="90" height="85" as="geometry" />
        </mxCell>
        <mxCell id="O2gnGtnlvFRp986lp4Vl-79" value="" style="shape=actor;whiteSpace=wrap;html=1;fillColor=#00FF00;" vertex="1" parent="O2gnGtnlvFRp986lp4Vl-78">
          <mxGeometry x="25" width="40" height="60" as="geometry" />
        </mxCell>
        <mxCell id="O2gnGtnlvFRp986lp4Vl-80" value="Notification&lt;div&gt;（BOT）&lt;/div&gt;" style="text;html=1;align=center;verticalAlign=middle;whiteSpace=wrap;rounded=0;fontStyle=1;fillColor=none;fontSize=15;" vertex="1" parent="O2gnGtnlvFRp986lp4Vl-64">
          <mxGeometry x="210" y="180" width="95" height="40" as="geometry" />
        </mxCell>
        <mxCell id="O2gnGtnlvFRp986lp4Vl-81" value="" style="edgeStyle=elbowEdgeStyle;elbow=vertical;html=1;rounded=1;curved=0;sourcePerimeterSpacing=0;targetPerimeterSpacing=0;startSize=6;endSize=6;entryX=0;entryY=0.5;entryDx=0;entryDy=0;endArrow=none;endFill=0;startArrow=classic;startFill=1;exitX=0;exitY=0.5;exitDx=0;exitDy=0;strokeWidth=2;strokeColor=#3399FF;" edge="1" parent="1" source="O2gnGtnlvFRp986lp4Vl-49" target="O2gnGtnlvFRp986lp4Vl-48">
          <mxGeometry relative="1" as="geometry">
            <mxPoint x="106" y="260" as="sourcePoint" />
            <mxPoint x="106" y="110" as="targetPoint" />
            <Array as="points">
              <mxPoint x="76" y="170" />
            </Array>
          </mxGeometry>
        </mxCell>
        <mxCell id="O2gnGtnlvFRp986lp4Vl-85" value="" style="elbow=vertical;html=1;rounded=1;sourcePerimeterSpacing=0;targetPerimeterSpacing=0;startSize=6;endSize=6;entryX=1;entryY=0.5;entryDx=0;entryDy=0;endArrow=none;endFill=0;startArrow=classic;startFill=1;exitX=0;exitY=0.5;exitDx=0;exitDy=0;strokeWidth=2;strokeColor=#3399FF;" edge="1" parent="1" source="O2gnGtnlvFRp986lp4Vl-53" target="O2gnGtnlvFRp986lp4Vl-84">
          <mxGeometry relative="1" as="geometry">
            <mxPoint x="736" y="250" as="sourcePoint" />
            <mxPoint x="492" y="250" as="targetPoint" />
          </mxGeometry>
        </mxCell>
        <mxCell id="O2gnGtnlvFRp986lp4Vl-84" value="トリガー：&lt;font color=&quot;#ff0000&quot;&gt;毎日０時&lt;/font&gt;" style="text;html=1;align=center;verticalAlign=middle;whiteSpace=wrap;rounded=0;fontStyle=1;fillColor=default;fontSize=15;" vertex="1" parent="1">
          <mxGeometry x="572.25" y="235" width="143.75" height="30" as="geometry" />
        </mxCell>
        <mxCell id="O2gnGtnlvFRp986lp4Vl-87" value="" style="elbow=vertical;html=1;rounded=1;sourcePerimeterSpacing=0;targetPerimeterSpacing=0;startSize=6;endSize=6;endArrow=none;endFill=0;startArrow=classic;startFill=1;entryX=1;entryY=0.5;entryDx=0;entryDy=0;strokeWidth=2;strokeColor=#3399FF;exitX=0.25;exitY=1;exitDx=0;exitDy=0;edgeStyle=orthogonalEdgeStyle;curved=0;" edge="1" parent="1" source="O2gnGtnlvFRp986lp4Vl-53" target="O2gnGtnlvFRp986lp4Vl-86">
          <mxGeometry relative="1" as="geometry">
            <mxPoint x="774" y="290" as="sourcePoint" />
            <mxPoint x="492" y="360" as="targetPoint" />
          </mxGeometry>
        </mxCell>
        <mxCell id="O2gnGtnlvFRp986lp4Vl-86" value="トリガー：&lt;font style=&quot;color: rgb(255, 0, 0);&quot;&gt;毎日０〜１&lt;span style=&quot;background-color: transparent;&quot;&gt;時&lt;/span&gt;&lt;/font&gt;" style="text;html=1;align=center;verticalAlign=middle;whiteSpace=wrap;rounded=0;fontStyle=1;fillColor=default;fontSize=15;" vertex="1" parent="1">
          <mxGeometry x="572.25" y="335" width="172.5" height="30" as="geometry" />
        </mxCell>
        <mxCell id="O2gnGtnlvFRp986lp4Vl-89" value="" style="edgeStyle=elbowEdgeStyle;elbow=vertical;html=1;rounded=1;curved=0;sourcePerimeterSpacing=0;targetPerimeterSpacing=0;startSize=6;endSize=6;endArrow=none;endFill=0;startArrow=classic;startFill=1;entryX=1;entryY=0.5;entryDx=0;entryDy=0;exitX=0.5;exitY=1;exitDx=0;exitDy=0;strokeWidth=2;strokeColor=#3399FF;" edge="1" parent="1" source="O2gnGtnlvFRp986lp4Vl-53" target="O2gnGtnlvFRp986lp4Vl-88">
          <mxGeometry relative="1" as="geometry">
            <mxPoint x="811" y="290" as="sourcePoint" />
            <mxPoint x="492" y="450" as="targetPoint" />
            <Array as="points">
              <mxPoint x="646" y="450" />
            </Array>
          </mxGeometry>
        </mxCell>
        <mxCell id="O2gnGtnlvFRp986lp4Vl-88" value="トリガー：&lt;font style=&quot;color: rgb(255, 0, 0);&quot;&gt;月・水・金０〜１&lt;span style=&quot;background-color: transparent;&quot;&gt;時&lt;/span&gt;&lt;/font&gt;" style="text;html=1;align=center;verticalAlign=middle;whiteSpace=wrap;rounded=0;fontStyle=1;fillColor=default;fontSize=15;" vertex="1" parent="1">
          <mxGeometry x="572.25" y="435" width="217.75" height="30" as="geometry" />
        </mxCell>
        <mxCell id="O2gnGtnlvFRp986lp4Vl-91" value="" style="edgeStyle=elbowEdgeStyle;elbow=vertical;html=1;rounded=1;curved=0;sourcePerimeterSpacing=0;targetPerimeterSpacing=0;startSize=6;endSize=6;endArrow=none;endFill=0;startArrow=classic;startFill=1;entryX=1;entryY=0.5;entryDx=0;entryDy=0;exitX=0.75;exitY=1;exitDx=0;exitDy=0;strokeWidth=2;strokeColor=#3399FF;" edge="1" parent="1" source="O2gnGtnlvFRp986lp4Vl-53" target="O2gnGtnlvFRp986lp4Vl-90">
          <mxGeometry relative="1" as="geometry">
            <mxPoint x="849" y="290" as="sourcePoint" />
            <mxPoint x="492" y="540" as="targetPoint" />
            <Array as="points">
              <mxPoint x="816" y="550" />
            </Array>
          </mxGeometry>
        </mxCell>
        <mxCell id="O2gnGtnlvFRp986lp4Vl-90" value="トリガー：&lt;font style=&quot;color: rgb(255, 0, 0);&quot;&gt;毎日６時&lt;/font&gt;" style="text;html=1;align=center;verticalAlign=middle;whiteSpace=wrap;rounded=0;fontStyle=1;fillColor=default;fontSize=15;" vertex="1" parent="1">
          <mxGeometry x="572.25" y="535" width="143.75" height="30" as="geometry" />
        </mxCell>
        <mxCell id="O2gnGtnlvFRp986lp4Vl-92" value="&lt;font style=&quot;font-size: 15px;&quot;&gt;Google Drive (Google Apps Script Env)&lt;/font&gt;" style="swimlane;whiteSpace=wrap;html=1;container=0;startSize=30;fillColor=#3399FF;" vertex="1" parent="1">
          <mxGeometry x="40" y="40" width="490" height="570" as="geometry" />
        </mxCell>
        <mxCell id="O2gnGtnlvFRp986lp4Vl-94" value="該当日時の関連セルに書き込み" style="text;html=1;align=center;verticalAlign=middle;whiteSpace=wrap;rounded=0;fontStyle=1;fillColor=default;fontSize=15;" vertex="1" parent="O2gnGtnlvFRp986lp4Vl-92">
          <mxGeometry x="50" y="137" width="220" height="30" as="geometry" />
        </mxCell>
        <mxCell id="O2gnGtnlvFRp986lp4Vl-50" value="&lt;span style=&quot;font-size: 14px; text-align: center; background-color: transparent; color: light-dark(rgb(0, 0, 0), rgb(255, 255, 255));&quot;&gt;&amp;nbsp;&lt;/span&gt;&lt;b style=&quot;text-align: center;&quot;&gt;&lt;font style=&quot;font-size: 14px;&quot;&gt;Folder Change Notification&lt;/font&gt;&lt;/b&gt;" style="label;whiteSpace=wrap;html=1;image=img/clipart/Gear_128x128.png;arcSize=10;fillColor=#3399FF;" vertex="1" parent="1">
          <mxGeometry x="126" y="320" width="366" height="60" as="geometry" />
        </mxCell>
        <mxCell id="O2gnGtnlvFRp986lp4Vl-52" value="&lt;span style=&quot;font-size: 14px; text-align: center; background-color: transparent; color: light-dark(rgb(0, 0, 0), rgb(255, 255, 255));&quot;&gt;&amp;nbsp;&lt;/span&gt;&lt;b style=&quot;text-align: center;&quot;&gt;&lt;font style=&quot;font-size: 14px;&quot;&gt;Query Log Report System&lt;/font&gt;&lt;/b&gt;" style="label;whiteSpace=wrap;html=1;image=img/clipart/Gear_128x128.png;arcSize=10;fillColor=#3399FF;" vertex="1" parent="1">
          <mxGeometry x="126" y="520" width="366" height="60" as="geometry" />
        </mxCell>
        <mxCell id="O2gnGtnlvFRp986lp4Vl-96" value="" style="elbow=vertical;html=1;rounded=0;sourcePerimeterSpacing=0;targetPerimeterSpacing=0;startSize=6;endSize=6;entryX=0;entryY=0.5;entryDx=0;entryDy=0;endArrow=none;endFill=0;startArrow=classic;startFill=1;exitX=1;exitY=0.5;exitDx=0;exitDy=0;strokeColor=#00FF00;strokeWidth=2;" edge="1" parent="1" source="O2gnGtnlvFRp986lp4Vl-48" target="O2gnGtnlvFRp986lp4Vl-95">
          <mxGeometry relative="1" as="geometry">
            <mxPoint x="492" y="130" as="sourcePoint" />
            <mxPoint x="871" y="210" as="targetPoint" />
          </mxGeometry>
        </mxCell>
        <mxCell id="O2gnGtnlvFRp986lp4Vl-95" value="&lt;span style=&quot;text-wrap-mode: nowrap; background-color: rgb(255, 255, 255);&quot;&gt;LINEのメッセージ検出&lt;/span&gt;" style="text;html=1;align=center;verticalAlign=middle;whiteSpace=wrap;rounded=0;fontStyle=1;fillColor=default;fontSize=15;" vertex="1" parent="1">
          <mxGeometry x="620" y="115" width="170" height="30" as="geometry" />
        </mxCell>
        <mxCell id="O2gnGtnlvFRp986lp4Vl-97" value="&lt;span style=&quot;text-wrap-mode: nowrap;&quot;&gt;&lt;font style=&quot;font-size: 12px;&quot;&gt;&lt;font face=&quot;Verdana&quot; style=&quot;&quot;&gt;※予約済み&lt;/font&gt;の文字列のみ&lt;/font&gt;&lt;/span&gt;" style="text;html=1;align=left;verticalAlign=middle;whiteSpace=wrap;rounded=0;fontStyle=1;fillColor=none;fontSize=15;" vertex="1" parent="1">
          <mxGeometry x="624.12" y="136" width="140" height="30" as="geometry" />
        </mxCell>
        <mxCell id="O2gnGtnlvFRp986lp4Vl-98" value="&lt;span style=&quot;text-wrap-mode: nowrap;&quot;&gt;&lt;font style=&quot;font-size: 12px;&quot;&gt;&lt;font face=&quot;Verdana&quot; style=&quot;&quot;&gt;※該当日時の関連セルに&lt;/font&gt;&lt;/font&gt;&lt;/span&gt;&lt;span style=&quot;background-color: transparent; color: light-dark(rgb(0, 0, 0), rgb(255, 255, 255)); text-wrap-mode: nowrap; font-size: 12px;&quot;&gt;特定の文字列&lt;/span&gt;&lt;span style=&quot;background-color: transparent; color: light-dark(rgb(0, 0, 0), rgb(255, 255, 255)); text-wrap-mode: nowrap; font-size: 12px;&quot;&gt;が&lt;/span&gt;&lt;div&gt;&lt;span style=&quot;background-color: transparent; color: light-dark(rgb(0, 0, 0), rgb(255, 255, 255)); text-wrap-mode: nowrap; font-size: 12px;&quot;&gt;　無い場合は送信しない&lt;/span&gt;&lt;/div&gt;" style="text;html=1;align=left;verticalAlign=middle;whiteSpace=wrap;rounded=0;fontStyle=1;fillColor=none;fontSize=15;" vertex="1" parent="1">
          <mxGeometry x="576" y="263" width="224" height="30" as="geometry" />
        </mxCell>
      </root>
    </mxGraphModel>
  </diagram>
</mxfile>
